<?xml version="1.0" encoding="UTF-8"?>
<svg version="1.1" viewBox="0 0 2048 582" width="387" height="110" xmlns="http://www.w3.org/2000/svg">
<path transform="translate(0)" d="m0 0h2048v582h-2048z" fill="#FDFDFD"/>
<path transform="translate(1034,210)" d="m0 0h63l12 2 10 4 9 7 6 9 3 8 1 11-2 10-6 11-5 4h-2l3 5 9 10 5 11 1 3v15l-4 13-6 8-8 7-13 6-4 1-18 1h-54z" fill="#010101"/>
<path transform="translate(1545,209)" d="m0 0 5 1 8 10 26 36 12 17 13 18 4 5 1-86h30l1 1v62l-1 82-1 1h-22l-6-4-9-13-13-18-28-38-11-15-2 88h-30v-146z" fill="#010102"/>
<path transform="translate(147,74)" d="m0 0 2 1-18 18-7 8-10 12-10 15-11 19-11 23-9 25-6 23-6 36-2 21v16l2 23 5 32 6 25 10 30 11 25 12 22 13 19 10 13 8 9 6 8-4-2-15-13-16-15-9-9-9-11-9-10-11-14-11-17-12-21-9-20-9-27-6-26-2-14-1-31 4-24 7-27 8-22 10-20 10-16 9-12 9-11 12-13 13-13 8-7 12-10 15-11z" fill="#0D7ECB"/>
<path transform="translate(623,116)" d="m0 0 8 6 13 12 16 17 12 14 14 18 11 17 10 18 11 23 9 27 4 20 4 29v15l-4 30-4 19-9 27-12 24-12 19-18 22-9 10-12 12-11 9-12 10-18 13-7 4-2-1 19-19 7-8 11-14 11-17 12-21 12-27 7-21 6-24 4-28 2-21v-23l-4-39-5-25-8-27-9-24-11-23-10-17-9-13-10-13-7-8z" fill="#0D7ECB"/>
<path transform="translate(1240,208)" d="m0 0h27l13 3 15 8 12 11 8 11 6 12 3 12-2 1h-28l-6-9-6-8-7-6-12-4h-16l-11 3-10 6-8 10-5 12-1 5v15l3 11 5 10 6 7 10 6 16 4h10l10-3 6-4 7-7 6-10 2-5h32l-3 12-5 12-8 11-10 10-13 8-14 5-11 2h-13l-18-4-12-5-11-7-9-8-8-11-6-12-4-14-1-9v-10l2-14 5-15 7-13 9-10 11-9 15-7z" fill="#010101"/>
<path transform="translate(1686,210)" d="m0 0h113l-1 29-1 1h-38l-1 11-1 105h-30l-1-1v-115h-16l-24-1z" fill="#010101"/>
<path transform="translate(752,210)" d="m0 0h113v15l-1 14-1 1h-39v114l-2 2h-29l-1-115-1-1-39-1z" fill="#010101"/>
<path transform="translate(1913,210)" d="m0 0h31v116h53l3 1v22l-1 7h-86z" fill="#010101"/>
<path transform="translate(906,210)" d="m0 0h31l1 115 2 1h53v18l-1 12h-86z" fill="#010101"/>
<path transform="translate(1437,210)" d="m0 0h32v37l-1 109h-31z" fill="#010101"/>
<path transform="translate(111,271)" d="m0 0h40l6 3 4 5 2 5 1 10-6 8 2 5 7 9v8l-5 10-7 4-10 2h-31l-3-1 1-8 3-3 1-4 1-36-3-7-4-6z" fill="#0D7ECB"/>
<path transform="translate(185,270)" d="m0 0h32l8 4 6 9 2 6v7l-3 5-7 7 1 6 7 13 8 4v9h-14l-4-2-13-25-3-2-5 1-1 1v13l7 6 1 7-6 1h-23l-3-1 1-8 5-3 1-2 1-16v-16l-2-10-6-5v-7l1-1z" fill="#0D7ECB"/>
<path transform="translate(451,270)" d="m0 0h34l10 5 5 8 2 7v7l-9 10-1 5 7 14v2l6 2 4 3v7h-16l-4-4-10-19-4-5h-7l-1 7 1 8 7 5 1 7-1 1h-30v-7l4-4 2-1v-44l-5-4-1-2v-7z" fill="#0D7ECB"/>
<path transform="translate(380,270)" d="m0 0h18l3 1v10l-4 2v15h17v-14l-5-4v-9l7-1h19l2 3v7l-8 3v36l1 8 6 4 1 1v8h-28v-9l5-4v-16l-2-1h-14l-1 1v16l3 3 2 9-1 1h-28l-2-2v-8l8-2v-46l-7-1-1-9 1-1z" fill="#0D7ECB"/>
<path transform="translate(587,270)" d="m0 0h14l6 9 13 26 6 8 2 1-1-21-2-9-6-7 1-5 2-1h22l2 2v5l-4 3-5 1v59l-2 1h-7l-5-5-15-28-8-13-4-5v15l1 21 6 4 1 2v6l-9 1h-16l-2-4v-5l8-3v-45l-7-3-1-1v-7l1-1z" fill="#0D7ECB"/>
<path transform="translate(525,270)" d="m0 0h41l2 2 1 6v10l-1 3-7-1-3-3v-2l-4-1-16-1 1 14 3 2h10l2 1-1 6-1 2-13 3v16l1 1h15l3-1 4-8 5 1 2 4-1 15-1 1h-53l-1-9 8-3v-46l-6-2-2-3v-5l2-1z" fill="#0D7ECB"/>
<path transform="translate(255,270)" d="m0 0h45l1 3v14l-1 5-8-2-3-6h-20v15l16 1-1 7-1 1-14 1 1 19h19l3-8 1-1 7 1 1 1v18l-2 1h-53l-2-9 9-2v-47l-7-2-2-5v-3l2-1z" fill="#0D7ECB"/>
<path transform="translate(318,270)" d="m0 0h46l1 2v24l-1 1h-7l-4-14-1-1h-7l-1 2v43l1 1 7 1 2 2v7l-1 2h-33l-1-1v-7l8-4 1-11v-33l-1-1h-8l-1 4-1 10-9-1v-25z" fill="#0D7ECB"/>
<path transform="translate(1835,210)" d="m0 0h29l-1 56h-14l-14-1z" fill="#010203"/>
<path transform="translate(1065,295)" d="m0 0h31l7 2 5 5 2 4v9l-6 9-3 2h-36l-1-8v-11z" fill="#FEFEFE"/>
<path transform="translate(1065,238)" d="m0 0h21l12 1 6 4 3 6v9l-4 6-4 4h-34l-1-4v-14z" fill="#FEFEFE"/>
<path transform="translate(382,350)" d="m0 0h14l4 2 1 7-4-2-6-2h-7l-5 5-1 2v7l2 4 4 2h8l8-4-1 5-5 5-3 1h-7l-8-4-4-6-1-3v-8l4-7 4-3z" fill="#0D7ECB"/>
<path transform="translate(510,349)" d="m0 0h6l2 2v9h10l2 3 3 19h-10l1-2v-14l-3-3-3-1 1 20-1 1h-7l1-12v-11l-3-10z" fill="#0D7ECB"/>
<path transform="translate(246,239)" d="m0 0h7l4 4 1 3v8l-3 5-3 2-9-1-5-6v-7l6-7z" fill="#0D7ECB"/>
<path transform="translate(211,229)" d="m0 0h11l-2 5v22l5 2 3-4 1-9 4 2 1 12-4 2h-19l-1-2 1-6v-21z" fill="#0D7ECB"/>
<path transform="translate(135,309)" d="m0 0 11 1 4 2 2 4v8l-3 4-3 1h-11l-3-3v-13z" fill="#FEFEFE"/>
<path transform="translate(128,228)" d="m0 0 9 1 1 1v6h-2l-1 3-3-1-1-5h-4l1 3 1 15 3 10h-13v-4l2-5 1-6v-15l-6 3-2 6-2-2 1-7 2-2z" fill="#0D7ECB"/>
<path transform="translate(184,239)" d="m0 0 6 2 1 1v16l-4 3h-7l-5-4-2-4 1-9 5-4z" fill="#0D7ECB"/>
<path transform="translate(470,281)" d="m0 0h8l5 3 2 2 1 6-2 5-5 3h-10l-3-4v-11z" fill="#FEFEFE"/>
<path transform="translate(298,228)" d="m0 0h5l2 2 3 25v6h-13l-7-3-2-5v-8l4-4 7-1 1 3-6 2-1 2v6l3 2h7v-18z" fill="#0D7ECB"/>
<path transform="translate(203,281)" d="m0 0 8 1 6 5v8l-4 4-3 1h-9l-3-3v-12l3-3z" fill="#FEFEFE"/>
<path transform="translate(142,229)" d="m0 0h7l2 1 1 8 9 2 2 3 3 15v3h-6l-2-16-2-3h-4v11l1 8-6 1-3-1 2-11-1-16z" fill="#0D7ECB"/>
<path transform="translate(408,349)" d="m0 0h5l1 1v10h8l4 3 3 17-2 2-5-1 1-2-1-12-3-3-4-1 1 14 3 4-9 1-1-1v-22z" fill="#0D7ECB"/>
<path transform="translate(551,350)" d="m0 0h13v4l-4 2-1 5-1 13-1 2 7 1 2 5-13 1-3-2 1-4v-22l-1-4z" fill="#0D7ECB"/>
<path transform="translate(135,282)" d="m0 0h9l5 5v9l-6 3-7 1-4-4v-11z" fill="#FEFEFE"/>
<path transform="translate(437,360)" d="m0 0h6v10l2 6h5v-8l-2-6-2-2h8l2 14 2 4v4h-10l-7-1-3-5-2-15z" fill="#0D7ECB"/>
<path transform="translate(574,360)" d="m0 0h12l2 1 4 17 1 4h-6l-1-11-2-5-7-1 1 9 3 6 1 3h-10l-1-21z" fill="#0D7ECB"/>
<path transform="translate(467,360)" d="m0 0h12l1 7-6-3h-2l1 9 3 9-7 1-3-2v-20z" fill="#0D7ECB"/>
<path transform="translate(490,360)" d="m0 0h11l1 5h-10l-1 2v6l1 2 5 1h6l-2 5-6 1-6-2-4-6 3-13z" fill="#0D7ECB"/>
<path transform="translate(271,239)" d="m0 0 7 1-2 10v11l-5 1-5-2 3-13-2-7z" fill="#0D7ECB"/>
<path transform="translate(601,355)" d="m0 0 5 1 2 7-1 2-4 2 2 7 3 3v4h-7l-2-5-1-8v-10z" fill="#0D7ECB"/>
<path transform="translate(632,349)" d="m0 0h4l1 25 2 7-1 1-9-1 2-6v-16l-2-9z" fill="#0D7ECB"/>
<path transform="translate(332,240)" d="m0 0h11l-1 3h-9v15l5 1-1-11 6 2v9l-2 2h-11l-2-2 1-10v-7z" fill="#0D7ECB"/>
<path transform="translate(180,243)" d="m0 0h5l3 3v9l-5 4-3-1-2-6v-6z" fill="#FEFEFE"/>
<path transform="translate(246,242)" d="m0 0 7 1 1 2v10l-2 2-5-1-3-4v-7z" fill="#FEFEFE"/>
<path transform="translate(615,351)" d="m0 0h9l-2 12-2-1-3-8z" fill="#0D7ECB"/>
<path transform="translate(319,229)" d="m0 0h2v12l-2-1-1-10z" fill="#0D7ECB"/>
</svg>
